<?xml version="1.0" encoding="UTF-8"?>
<svg id="Layer_1" data-name="Layer 1" xmlns="http://www.w3.org/2000/svg" viewBox="0 0 135.04 78.64">
  <defs>
    <style>
      .cls-1 {
        fill: none;
        stroke: #ef3b39;
        stroke-width: 1.5px;
      }

      .cls-2 {
        fill: #bcbec0;
      }

      .cls-3 {
        fill: #ed1c24;
      }
    </style>
  </defs>
  <g>
    <path class="cls-2" d="M8.32,55.28H0L9.26,23.04h8.32l-9.26,32.24Z"/>
    <path class="cls-2" d="M24.3,55.28h-8.32l9.26-32.24h8.32l-9.26,32.24Z"/>
    <path class="cls-2" d="M41.25,76.99h-7.63l3.71-12.92c.08-.28.03-.45-.16-.52-.24-.07-.52.17-.86.72-1.12,1.76-3.77,5.46-7.94,11.11-.62.65-1.6,1.74-2.93,3.25h-1.23l3.87-13.49c2-2.07,4-4.13,5.99-6.18,1.99-2.05,3.55-3.83,4.68-5.35,1.13-1.52,1.94-3.15,2.45-4.91l1.86-6.46c.72-2.52.89-4.63.51-6.33-.38-1.71-1.35-2.56-2.91-2.56-1.05,0-2.1.36-3.15,1.08l2.98-10.39c.99-.69,2.42-1.03,4.28-1.03,3.14,0,5.37,1.52,6.7,4.55,1.62,3.51,1.49,8.58-.41,15.19l-9.83,34.21Z"/>
    <path class="cls-2" d="M77.92,76.99h-8.32l7.84-27.28c1.5-5.24,1.66-9.39.47-12.45-1.19-3.06-3.65-4.6-7.38-4.6-4.11,0-7.79,1.62-11.01,4.86h-.5l3.19-11.11c3.34-2.82,7.18-4.24,11.52-4.24,5.65,0,9.63,2.15,11.94,6.46,2.67,4.93,2.68,12.02.02,21.29l-7.78,27.08Z"/>
    <path class="cls-3" d="M133.21,51.15c-2.28,7.92-6.06,14.38-11.33,19.38-5.28,5-10.72,7.49-16.31,7.49-6.39,0-10.57-2.96-12.54-8.89-1.77-5.48-1.45-12.42.96-20.83l7.26-25.27h17.82c6.33,0,10.86,2.29,13.59,6.87,2.99,5.06,3.18,12.14.57,21.24ZM124.94,51.25c1.55-5.41,1.47-9.78-.25-13.13-1.68-3.03-4.47-4.55-8.35-4.55h-9.96l-4.35,15.14c-1.64,5.72-1.84,10.33-.6,13.82,1.24,3.5,3.57,5.24,6.96,5.24s6.45-1.48,9.61-4.44c3.16-2.96,5.48-6.99,6.94-12.09Z"/>
  </g>
  <path class="cls-1" d="M126.76,11.64c2.38-2.87,3.99-6.88,3.54-10.86-3.42.13-7.57,2.29-10.02,5.15-2.21,2.56-4.14,6.64-3.62,10.54,3.81.29,7.72-1.95,10.09-4.83Z"/>
</svg>